<svg width="179" height="40" viewBox="0 0 179 40" fill="none" xmlns="http://www.w3.org/2000/svg">
<path d="M0 1.29871H6.28633C8.97587 1.29871 11.0114 1.67635 12.393 2.43164C13.7747 3.18692 14.4655 4.51326 14.4655 6.41067C14.4655 7.17517 14.3411 7.86597 14.0924 8.48309C13.853 9.10021 13.5029 9.6068 13.0424 10.0029C12.5819 10.3989 12.02 10.6568 11.3568 10.7766V10.9147C12.0292 11.0529 12.6371 11.2924 13.1806 11.6332C13.724 11.9648 14.1569 12.4529 14.4793 13.0977C14.8109 13.7332 14.9767 14.5806 14.9767 15.6398C14.9767 16.8649 14.6773 17.9149 14.0786 18.7899C13.4799 19.6649 12.6233 20.3373 11.5088 20.8071C10.4035 21.2676 9.08639 21.4979 7.55741 21.4979H0V1.29871ZM4.28299 9.29824H6.76989C8.01334 9.29824 8.87455 9.10482 9.35351 8.71796C9.83246 8.3219 10.0719 7.74163 10.0719 6.97713C10.0719 6.20343 9.78641 5.65079 9.21534 5.3192C8.65349 4.9784 7.76005 4.80801 6.53502 4.80801H4.28299V9.29824ZM4.28299 12.697V17.9609H7.07385C8.36335 17.9609 9.2614 17.7123 9.76799 17.2149C10.2746 16.7175 10.5279 16.0497 10.5279 15.2115C10.5279 14.7142 10.4173 14.2766 10.1963 13.899C9.97523 13.5214 9.6022 13.2266 9.07718 13.0148C8.56138 12.8029 7.84755 12.697 6.93569 12.697H4.28299Z" fill="#1A74E4"/>
<path d="M25.0486 5.76132C26.4763 5.76132 27.7059 6.03764 28.7375 6.59028C29.7691 7.13372 30.5658 7.92584 31.1277 8.96665C31.6895 10.0075 31.9705 11.2786 31.9705 12.7799V14.8247H22.0091C22.0551 16.0129 22.4097 16.9478 23.0729 17.6294C23.7453 18.3017 24.6756 18.6379 25.8638 18.6379C26.8493 18.6379 27.752 18.5366 28.5717 18.334C29.3915 18.1313 30.2343 17.8274 31.1001 17.4221V20.6827C30.3356 21.0604 29.5342 21.3367 28.6961 21.5117C27.8671 21.6867 26.8585 21.7742 25.6703 21.7742C24.1229 21.7742 22.7505 21.4887 21.5531 20.9176C20.3649 20.3465 19.4301 19.4761 18.7485 18.3063C18.0761 17.1366 17.7399 15.6629 17.7399 13.8852C17.7399 12.0799 18.0438 10.5785 18.6517 9.38114C19.2689 8.17453 20.1255 7.27188 21.2215 6.67318C22.3176 6.06527 23.5933 5.76132 25.0486 5.76132ZM25.0762 8.75941C24.2565 8.75941 23.5749 9.02192 23.0315 9.54693C22.4972 10.0719 22.1887 10.8963 22.1058 12.02H28.0191C28.0099 11.3937 27.8947 10.8364 27.6737 10.3483C27.4618 9.8601 27.1394 9.47325 26.7065 9.18771C26.2828 8.90218 25.7394 8.75941 25.0762 8.75941Z" fill="#1A74E4"/>
<path d="M46.1734 16.9109C46.1734 17.9609 45.9247 18.8498 45.4274 19.5774C44.9392 20.2959 44.2069 20.8439 43.2306 21.2215C42.2543 21.59 41.0384 21.7742 39.5832 21.7742C38.5055 21.7742 37.5798 21.7051 36.8061 21.5669C36.0416 21.4288 35.2679 21.1985 34.485 20.8761V17.3945C35.3232 17.7721 36.2212 18.0853 37.1791 18.334C38.1463 18.5735 38.9937 18.6932 39.7213 18.6932C40.5411 18.6932 41.1259 18.5735 41.476 18.334C41.8352 18.0853 42.0148 17.7629 42.0148 17.3668C42.0148 17.1089 41.9411 16.8787 41.7937 16.676C41.6556 16.4642 41.3516 16.2293 40.8819 15.9714C40.4121 15.7043 39.6753 15.3589 38.6713 14.9352C37.7042 14.5299 36.9074 14.1201 36.2811 13.7056C35.664 13.2911 35.2034 12.8029 34.8995 12.2411C34.6047 11.67 34.4574 10.947 34.4574 10.0719C34.4574 8.64428 35.01 7.57123 36.1153 6.85279C37.2298 6.12514 38.7173 5.76132 40.5779 5.76132C41.5358 5.76132 42.4477 5.85803 43.3135 6.05146C44.1885 6.24488 45.0866 6.55344 46.0076 6.97713L44.7366 10.0167C43.9721 9.68509 43.249 9.41338 42.5674 9.20153C41.895 8.98968 41.2088 8.88376 40.5088 8.88376C39.8917 8.88376 39.4266 8.96665 39.1134 9.13245C38.8002 9.29824 38.6437 9.55154 38.6437 9.89233C38.6437 10.141 38.7219 10.3621 38.8785 10.5555C39.0443 10.7489 39.3575 10.9654 39.818 11.2049C40.2878 11.4351 40.974 11.7345 41.8766 12.1029C42.7516 12.4621 43.5115 12.8398 44.1563 13.2358C44.801 13.6227 45.2984 14.1062 45.6484 14.6865C45.9984 15.2576 46.1734 15.9991 46.1734 16.9109Z" fill="#1A74E4"/>
<path d="M55.9691 18.4169C56.4296 18.4169 56.8763 18.3708 57.3092 18.2787C57.7513 18.1866 58.1888 18.0715 58.6217 17.9333V21.0696C58.1704 21.2722 57.6086 21.438 56.9362 21.5669C56.273 21.7051 55.5454 21.7742 54.7532 21.7742C53.8322 21.7742 53.0032 21.6268 52.2663 21.3321C51.5387 21.0281 50.963 20.5077 50.5393 19.7709C50.1248 19.0248 49.9176 17.9886 49.9176 16.6622V9.21534H47.9004V7.43307L50.2216 6.02382L51.4374 2.76322H54.1315V6.05146H58.456V9.21534H54.1315V16.6622C54.1315 17.2517 54.2973 17.6938 54.6289 17.9886C54.9697 18.2741 55.4164 18.4169 55.9691 18.4169Z" fill="#1A74E4"/>
<path d="M69.8819 21.4979H65.5989V4.86327H60.1139V1.29871H75.3669V4.86327H69.8819V21.4979Z" fill="#1A74E4"/>
<path d="M86.7652 5.76132C86.977 5.76132 87.2211 5.77513 87.4974 5.80277C87.783 5.82119 88.0132 5.84882 88.1882 5.88566L87.8705 9.83707C87.7323 9.79102 87.5343 9.75878 87.2764 9.74036C87.0277 9.71272 86.8112 9.69891 86.627 9.69891C86.0836 9.69891 85.5539 9.76799 85.0381 9.90615C84.5316 10.0443 84.0756 10.27 83.6704 10.5831C83.2651 10.8871 82.9427 11.2924 82.7032 11.799C82.473 12.2963 82.3578 12.9089 82.3578 13.6365V21.4979H78.1439V6.05146H81.3354L81.9572 8.64888H82.1644C82.4684 8.12387 82.846 7.64491 83.2973 7.21201C83.7579 6.76989 84.2783 6.41989 84.8585 6.16198C85.448 5.89487 86.0836 5.76132 86.7652 5.76132Z" fill="#1A74E4"/>
<path d="M95.2068 6.05146V21.4979H90.9929V6.05146H95.2068ZM93.1068 0C93.7331 0 94.2719 0.147372 94.7232 0.442115C95.1746 0.727648 95.4002 1.26648 95.4002 2.0586C95.4002 2.84151 95.1746 3.38495 94.7232 3.6889C94.2719 3.98364 93.7331 4.13102 93.1068 4.13102C92.4712 4.13102 91.9278 3.98364 91.4765 3.6889C91.0343 3.38495 90.8133 2.84151 90.8133 2.0586C90.8133 1.26648 91.0343 0.727648 91.4765 0.442115C91.9278 0.147372 92.4712 0 93.1068 0Z" fill="#1A74E4"/>
<path d="M108.235 5.76132C109.976 5.76132 111.381 6.43831 112.449 7.79229C113.527 9.14626 114.066 11.1312 114.066 13.747C114.066 15.4971 113.812 16.9708 113.306 18.1682C112.799 19.3564 112.099 20.2544 111.206 20.8623C110.312 21.4702 109.285 21.7742 108.125 21.7742C107.379 21.7742 106.739 21.6821 106.204 21.4979C105.67 21.3044 105.214 21.0604 104.837 20.7656C104.459 20.4617 104.132 20.1393 103.856 19.7985H103.635C103.708 20.1669 103.764 20.5446 103.8 20.9314C103.837 21.3183 103.856 21.6959 103.856 22.0643V28.2954H99.6418V6.05146H103.068L103.662 8.05479H103.856C104.132 7.64031 104.468 7.25806 104.864 6.90805C105.26 6.55805 105.735 6.28172 106.287 6.07909C106.849 5.86724 107.499 5.76132 108.235 5.76132ZM106.881 9.13245C106.145 9.13245 105.56 9.28442 105.127 9.58838C104.694 9.89233 104.376 10.3483 104.173 10.9562C103.98 11.5641 103.874 12.3332 103.856 13.2635V13.7194C103.856 14.7142 103.948 15.5569 104.132 16.2477C104.325 16.9385 104.643 17.4636 105.085 17.8228C105.537 18.182 106.154 18.3616 106.937 18.3616C107.581 18.3616 108.111 18.182 108.526 17.8228C108.94 17.4636 109.249 16.9385 109.451 16.2477C109.663 15.5477 109.769 14.6957 109.769 13.6918C109.769 12.1812 109.534 11.0437 109.064 10.2792C108.595 9.51469 107.867 9.13245 106.881 9.13245Z" fill="#1A74E4"/>
<path d="M116.953 19.5222C116.953 18.6564 117.188 18.0484 117.658 17.6984C118.137 17.3484 118.713 17.1734 119.385 17.1734C120.039 17.1734 120.601 17.3484 121.071 17.6984C121.55 18.0484 121.789 18.6564 121.789 19.5222C121.789 20.3511 121.55 20.9498 121.071 21.3183C120.601 21.6867 120.039 21.8709 119.385 21.8709C118.713 21.8709 118.137 21.6867 117.658 21.3183C117.188 20.9498 116.953 20.3511 116.953 19.5222Z" fill="#1A74E4"/>
<path d="M131.944 5.73369C134.016 5.73369 135.605 6.18501 136.71 7.08766C137.816 7.99032 138.368 9.36272 138.368 11.2049V21.4979H135.425L134.61 19.3978H134.5C134.058 19.9505 133.606 20.4018 133.146 20.7518C132.685 21.1018 132.156 21.3597 131.557 21.5255C130.958 21.6913 130.231 21.7742 129.374 21.7742C128.462 21.7742 127.642 21.5992 126.915 21.2492C126.196 20.8992 125.63 20.3649 125.215 19.6465C124.801 18.9189 124.594 17.9978 124.594 16.8833C124.594 15.2438 125.169 14.0372 126.321 13.2635C127.472 12.4806 129.199 12.0476 131.502 11.9648L134.182 11.8819V11.2049C134.182 10.3943 133.97 9.80023 133.547 9.42259C133.123 9.04495 132.533 8.85613 131.778 8.85613C131.032 8.85613 130.3 8.96205 129.581 9.1739C128.863 9.38574 128.144 9.65285 127.426 9.97523L126.031 7.12911C126.85 6.69621 127.767 6.35541 128.78 6.10672C129.802 5.85803 130.857 5.73369 131.944 5.73369ZM134.182 14.3411L132.552 14.3964C131.189 14.4332 130.24 14.6773 129.706 15.1286C129.181 15.58 128.918 16.1741 128.918 16.9109C128.918 17.5557 129.107 18.0162 129.485 18.2925C129.862 18.5596 130.355 18.6932 130.963 18.6932C131.866 18.6932 132.625 18.4261 133.243 17.8919C133.869 17.3576 134.182 16.5978 134.182 15.6122V14.3411Z" fill="#1A74E4"/>
<path d="M153.497 16.9109C153.497 17.9609 153.248 18.8498 152.751 19.5774C152.263 20.2959 151.53 20.8439 150.554 21.2215C149.578 21.59 148.362 21.7742 146.907 21.7742C145.829 21.7742 144.903 21.7051 144.13 21.5669C143.365 21.4288 142.591 21.1985 141.809 20.8761V17.3945C142.647 17.7721 143.545 18.0853 144.503 18.334C145.47 18.5735 146.317 18.6932 147.045 18.6932C147.865 18.6932 148.449 18.5735 148.799 18.334C149.159 18.0853 149.338 17.7629 149.338 17.3668C149.338 17.1089 149.265 16.8787 149.117 16.676C148.979 16.4642 148.675 16.2293 148.205 15.9714C147.736 15.7043 146.999 15.3589 145.995 14.9352C145.028 14.5299 144.231 14.1201 143.605 13.7056C142.988 13.2911 142.527 12.8029 142.223 12.2411C141.928 11.67 141.781 10.947 141.781 10.0719C141.781 8.64428 142.334 7.57123 143.439 6.85279C144.553 6.12514 146.041 5.76132 147.901 5.76132C148.859 5.76132 149.771 5.85803 150.637 6.05146C151.512 6.24488 152.41 6.55344 153.331 6.97713L152.06 10.0167C151.296 9.68509 150.573 9.41338 149.891 9.20153C149.219 8.98968 148.532 8.88376 147.832 8.88376C147.215 8.88376 146.75 8.96665 146.437 9.13245C146.124 9.29824 145.967 9.55154 145.967 9.89233C145.967 10.141 146.045 10.3621 146.202 10.5555C146.368 10.7489 146.681 10.9654 147.142 11.2049C147.611 11.4351 148.298 11.7345 149.2 12.1029C150.075 12.4621 150.835 12.8398 151.48 13.2358C152.125 13.6227 152.622 14.1062 152.972 14.6865C153.322 15.2576 153.497 15.9991 153.497 16.9109Z" fill="#1A74E4"/>
<path d="M160.999 6.05146V21.4979H156.785V6.05146H160.999ZM158.899 0C159.525 0 160.064 0.147372 160.516 0.442115C160.967 0.727648 161.193 1.26648 161.193 2.0586C161.193 2.84151 160.967 3.38495 160.516 3.6889C160.064 3.98364 159.525 4.13102 158.899 4.13102C158.264 4.13102 157.72 3.98364 157.269 3.6889C156.827 3.38495 156.606 2.84151 156.606 2.0586C156.606 1.26648 156.827 0.727648 157.269 0.442115C157.72 0.147372 158.264 0 158.899 0Z" fill="#1A74E4"/>
<path d="M171.762 5.73369C173.834 5.73369 175.423 6.18501 176.528 7.08766C177.634 7.99032 178.186 9.36272 178.186 11.2049V21.4979H175.244L174.428 19.3978H174.318C173.876 19.9505 173.424 20.4018 172.964 20.7518C172.503 21.1018 171.974 21.3597 171.375 21.5255C170.776 21.6913 170.049 21.7742 169.192 21.7742C168.28 21.7742 167.46 21.5992 166.733 21.2492C166.014 20.8992 165.448 20.3649 165.033 19.6465C164.619 18.9189 164.412 17.9978 164.412 16.8833C164.412 15.2438 164.987 14.0372 166.139 13.2635C167.29 12.4806 169.017 12.0476 171.32 11.9648L174 11.8819V11.2049C174 10.3943 173.788 9.80023 173.365 9.42259C172.941 9.04495 172.351 8.85613 171.596 8.85613C170.85 8.85613 170.118 8.96205 169.399 9.1739C168.681 9.38574 167.962 9.65285 167.244 9.97523L165.849 7.12911C166.668 6.69621 167.585 6.35541 168.598 6.10672C169.62 5.85803 170.675 5.73369 171.762 5.73369ZM174 14.3411L172.37 14.3964C171.007 14.4332 170.058 14.6773 169.524 15.1286C168.999 15.58 168.736 16.1741 168.736 16.9109C168.736 17.5557 168.925 18.0162 169.303 18.2925C169.68 18.5596 170.173 18.6932 170.781 18.6932C171.684 18.6932 172.443 18.4261 173.061 17.8919C173.687 17.3576 174 16.5978 174 15.6122V14.3411Z" fill="#1A74E4"/>
<path d="M2.73212 33.2183C2.41728 33.2183 2.13366 33.2736 1.88126 33.3841C1.63147 33.492 1.4181 33.6499 1.24116 33.8578C1.06683 34.0631 0.932825 34.3117 0.839152 34.6039C0.745479 34.896 0.698643 35.2249 0.698643 35.5907C0.698643 36.0749 0.7728 36.496 0.921116 36.8539C1.07203 37.2092 1.29581 37.4842 1.59244 37.6789C1.89167 37.8737 2.26506 37.971 2.71261 37.971C2.96761 37.971 3.20699 37.95 3.43077 37.9079C3.65714 37.8631 3.87701 37.8079 4.09038 37.7421V38.3263C3.88222 38.4053 3.66365 38.4632 3.43467 38.5C3.20569 38.5395 2.93378 38.5592 2.61893 38.5592C2.03868 38.5592 1.55341 38.4382 1.1631 38.196C0.775402 37.9513 0.483976 37.6066 0.288824 37.1618C0.0962748 36.7171 0 36.1921 0 35.5868C0 35.1499 0.0598465 34.7512 0.179539 34.3907C0.301834 34.0275 0.478772 33.7144 0.710352 33.4512C0.944534 33.188 1.23076 32.9854 1.56902 32.8433C1.90988 32.6986 2.30019 32.6262 2.73993 32.6262C3.02875 32.6262 3.30717 32.6551 3.57518 32.713C3.84319 32.7709 4.08517 32.8538 4.30114 32.9617L4.03574 33.5301C3.85359 33.4459 3.65324 33.3736 3.43467 33.313C3.2187 33.2499 2.98452 33.2183 2.73212 33.2183Z" fill="#FF4D00"/>
<path d="M12.7436 38.4803L12.041 36.6486H9.75383L9.05519 38.4803H8.38387L10.6164 32.6854H11.2136L13.4305 38.4803H12.7436ZM11.842 36.0526L11.1745 34.2328C11.1589 34.1854 11.1329 34.1078 11.0965 33.9999C11.0627 33.892 11.0275 33.7802 10.9911 33.6644C10.9547 33.5486 10.9247 33.4551 10.9013 33.3841C10.8753 33.492 10.8467 33.5999 10.8155 33.7078C10.7868 33.8131 10.7582 33.9117 10.7296 34.0038C10.701 34.0933 10.6763 34.1696 10.6554 34.2328L9.97631 36.0526H11.842Z" fill="#FF4D00"/>
<path d="M19.6013 32.7091C20.0697 32.7091 20.4561 32.7683 20.7605 32.8867C21.0676 33.0025 21.2966 33.1801 21.4475 33.4196C21.5984 33.6591 21.6739 33.9644 21.6739 34.3354C21.6739 34.6407 21.6192 34.896 21.5099 35.1012C21.4006 35.3039 21.2575 35.4684 21.0806 35.5947C20.9037 35.721 20.715 35.8184 20.5147 35.8868L22.0798 38.4803H21.307L19.9097 36.0723H18.7232V38.4803H18.0596V32.7091H19.6013ZM19.5623 33.2894H18.7232V35.5039H19.6287C20.0944 35.5039 20.4366 35.4078 20.6552 35.2157C20.8763 35.0236 20.9869 34.7407 20.9869 34.367C20.9869 33.9749 20.8698 33.6973 20.6356 33.5341C20.4041 33.3709 20.0463 33.2894 19.5623 33.2894Z" fill="#FF4D00"/>
<path d="M30.007 38.4803H26.8299V32.7091H30.007V33.3012H27.4934V35.1683H29.8626V35.7526H27.4934V37.8881H30.007V38.4803Z" fill="#FF4D00"/>
<path d="M41.6852 38.4803H41.0217V32.7091H44.1987V33.3012H41.6852V35.417H44.0465V36.0052H41.6852V38.4803Z" fill="#FF4D00"/>
<path d="M53.9369 35.5868C53.9369 36.0315 53.881 36.4368 53.7691 36.8026C53.6572 37.1658 53.4907 37.4789 53.2695 37.7421C53.051 38.0026 52.779 38.2039 52.4538 38.3461C52.1285 38.4882 51.7512 38.5592 51.3219 38.5592C50.8796 38.5592 50.4932 38.4882 50.1627 38.3461C49.8349 38.2039 49.5616 38.0013 49.3431 37.7381C49.1271 37.475 48.9645 37.1605 48.8552 36.7947C48.7485 36.4289 48.6952 36.0236 48.6952 35.5789C48.6952 34.9894 48.7914 34.4723 48.984 34.0275C49.1765 33.5828 49.468 33.2367 49.8583 32.9893C50.2512 32.742 50.743 32.6183 51.3336 32.6183C51.8983 32.6183 52.3731 32.7407 52.7582 32.9854C53.1459 33.2301 53.4387 33.5749 53.6364 34.0196C53.8368 34.4617 53.9369 34.9841 53.9369 35.5868ZM49.3938 35.5868C49.3938 36.0763 49.4628 36.5 49.6007 36.8579C49.7386 37.2158 49.9493 37.4921 50.233 37.6868C50.5192 37.8816 50.8822 37.9789 51.3219 37.9789C51.7643 37.9789 52.1259 37.8816 52.407 37.6868C52.6906 37.4921 52.9 37.2158 53.0353 36.8579C53.1706 36.5 53.2383 36.0763 53.2383 35.5868C53.2383 34.842 53.0835 34.2604 52.7738 33.842C52.4668 33.4209 51.9867 33.2104 51.3336 33.2104C50.8913 33.2104 50.527 33.3065 50.2408 33.4986C49.9545 33.6907 49.7412 33.9644 49.6007 34.3196C49.4628 34.6723 49.3938 35.0947 49.3938 35.5868Z" fill="#FF4D00"/>
<path d="M60.5879 32.7091C61.0562 32.7091 61.4426 32.7683 61.7471 32.8867C62.0541 33.0025 62.2831 33.1801 62.434 33.4196C62.5849 33.6591 62.6604 33.9644 62.6604 34.3354C62.6604 34.6407 62.6057 34.896 62.4964 35.1012C62.3872 35.3039 62.244 35.4684 62.0671 35.5947C61.8902 35.721 61.7015 35.8184 61.5012 35.8868L63.0663 38.4803H62.2935L60.8962 36.0723H59.7097V38.4803H59.0462V32.7091H60.5879ZM60.5488 33.2894H59.7097V35.5039H60.6152C61.0809 35.5039 61.4231 35.4078 61.6417 35.2157C61.8629 35.0236 61.9734 34.7407 61.9734 34.367C61.9734 33.9749 61.8563 33.6973 61.6222 33.5341C61.3906 33.3709 61.0328 33.2894 60.5488 33.2894Z" fill="#FF4D00"/>
<path d="M76.9068 38.4803H73.7297V32.7091H76.9068V33.3012H74.3932V35.1683H76.7623V35.7526H74.3932V37.8881H76.9068V38.4803Z" fill="#FF4D00"/>
<path d="M85.9932 32.7091L83.9441 38.4803H83.2767L81.2276 32.7091H81.9223L83.2571 36.5105C83.3118 36.6631 83.3599 36.8092 83.4016 36.9486C83.4458 37.0881 83.4848 37.2223 83.5186 37.3513C83.5525 37.4802 83.5824 37.6052 83.6084 37.7263C83.6344 37.6052 83.6644 37.4802 83.6982 37.3513C83.732 37.2197 83.771 37.0842 83.8153 36.9447C83.8595 36.8026 83.909 36.6539 83.9636 36.4986L85.2906 32.7091H85.9932Z" fill="#FF4D00"/>
<path d="M93.7916 38.4803H90.6145V32.7091H93.7916V33.3012H91.278V35.1683H93.6472V35.7526H91.278V37.8881H93.7916V38.4803Z" fill="#FF4D00"/>
<path d="M100.435 32.7091C100.903 32.7091 101.289 32.7683 101.594 32.8867C101.901 33.0025 102.13 33.1801 102.281 33.4196C102.432 33.6591 102.507 33.9644 102.507 34.3354C102.507 34.6407 102.453 34.896 102.343 35.1012C102.234 35.3039 102.091 35.4684 101.914 35.5947C101.737 35.721 101.548 35.8184 101.348 35.8868L102.913 38.4803H102.14L100.743 36.0723H99.5565V38.4803H98.893V32.7091H100.435ZM100.396 33.2894H99.5565V35.5039H100.462C100.928 35.5039 101.27 35.4078 101.489 35.2157C101.71 35.0236 101.82 34.7407 101.82 34.367C101.82 33.9749 101.703 33.6973 101.469 33.5341C101.237 33.3709 100.88 33.2894 100.396 33.2894Z" fill="#FF4D00"/>
<path d="M109.119 35.6026L110.637 32.7091H111.352L109.451 36.2421V38.4803H108.787V36.2736L106.883 32.7091H107.609L109.119 35.6026Z" fill="#FF4D00"/>
<path d="M121.063 40C120.933 40 120.818 39.9908 120.719 39.9724C120.62 39.954 120.536 39.929 120.466 39.8974V39.325C120.549 39.3513 120.639 39.3711 120.735 39.3842C120.831 39.4 120.935 39.4079 121.047 39.4079C121.193 39.4079 121.327 39.379 121.449 39.3211C121.571 39.2632 121.669 39.1645 121.742 39.025C121.815 38.8855 121.851 38.6934 121.851 38.4487V32.7091H122.519V38.3974C122.519 38.7579 122.459 39.0566 122.339 39.2934C122.222 39.5303 122.054 39.7066 121.835 39.8224C121.62 39.9408 121.362 40 121.063 40Z" fill="#FF4D00"/>
<path d="M132.819 35.5868C132.819 36.0315 132.763 36.4368 132.651 36.8026C132.539 37.1658 132.373 37.4789 132.151 37.7421C131.933 38.0026 131.661 38.2039 131.336 38.3461C131.01 38.4882 130.633 38.5592 130.204 38.5592C129.761 38.5592 129.375 38.4882 129.045 38.3461C128.717 38.2039 128.443 38.0013 128.225 37.7381C128.009 37.475 127.846 37.1605 127.737 36.7947C127.63 36.4289 127.577 36.0236 127.577 35.5789C127.577 34.9894 127.673 34.4723 127.866 34.0275C128.058 33.5828 128.35 33.2367 128.74 32.9893C129.133 32.742 129.625 32.6183 130.215 32.6183C130.78 32.6183 131.255 32.7407 131.64 32.9854C132.028 33.2301 132.32 33.5749 132.518 34.0196C132.719 34.4617 132.819 34.9841 132.819 35.5868ZM128.276 35.5868C128.276 36.0763 128.345 36.5 128.483 36.8579C128.62 37.2158 128.831 37.4921 129.115 37.6868C129.401 37.8816 129.764 37.9789 130.204 37.9789C130.646 37.9789 131.008 37.8816 131.289 37.6868C131.572 37.4921 131.782 37.2158 131.917 36.8579C132.052 36.5 132.12 36.0763 132.12 35.5868C132.12 34.842 131.965 34.2604 131.656 33.842C131.349 33.4209 130.869 33.2104 130.215 33.2104C129.773 33.2104 129.409 33.3065 129.123 33.4986C128.836 33.6907 128.623 33.9644 128.483 34.3196C128.345 34.6723 128.276 35.0947 128.276 35.5868Z" fill="#FF4D00"/>
<path d="M142.245 32.7091V36.4434C142.245 36.8513 142.163 37.2144 141.999 37.5329C141.838 37.8513 141.593 38.1026 141.265 38.2868C140.937 38.4684 140.526 38.5592 140.032 38.5592C139.327 38.5592 138.789 38.3658 138.42 37.9789C138.053 37.5921 137.869 37.075 137.869 36.4276V32.7091H138.537V36.4473C138.537 36.9368 138.664 37.3144 138.919 37.5802C139.177 37.846 139.561 37.9789 140.071 37.9789C140.419 37.9789 140.704 37.9158 140.926 37.7895C141.149 37.6605 141.315 37.4816 141.421 37.2526C141.531 37.021 141.585 36.7539 141.585 36.4513V32.7091H142.245Z" fill="#FF4D00"/>
<path d="M149.138 32.7091C149.606 32.7091 149.992 32.7683 150.297 32.8867C150.604 33.0025 150.833 33.1801 150.984 33.4196C151.135 33.6591 151.21 33.9644 151.21 34.3354C151.21 34.6407 151.156 34.896 151.046 35.1012C150.937 35.3039 150.794 35.4684 150.617 35.5947C150.44 35.721 150.251 35.8184 150.051 35.8868L151.616 38.4803H150.843L149.446 36.0723H148.259V38.4803H147.596V32.7091H149.138ZM149.099 33.2894H148.259V35.5039H149.165C149.631 35.5039 149.973 35.4078 150.191 35.2157C150.413 35.0236 150.523 34.7407 150.523 34.367C150.523 33.9749 150.406 33.6973 150.172 33.5341C149.94 33.3709 149.583 33.2894 149.099 33.2894Z" fill="#FF4D00"/>
<path d="M160.827 38.4803H160.062L156.952 33.6328H156.92C156.928 33.7617 156.937 33.9091 156.948 34.0749C156.958 34.2381 156.966 34.4131 156.971 34.5999C156.979 34.7841 156.983 34.9723 156.983 35.1644V38.4803H156.366V32.7091H157.127L160.226 37.5408H160.254C160.248 37.4487 160.242 37.3184 160.234 37.15C160.226 36.9789 160.219 36.796 160.211 36.6013C160.206 36.4039 160.203 36.221 160.203 36.0526V32.7091H160.827V38.4803Z" fill="#FF4D00"/>
<path d="M169.399 38.4803H166.222V32.7091H169.399V33.3012H166.885V35.1683H169.254V35.7526H166.885V37.8881H169.399V38.4803Z" fill="#FF4D00"/>
<path d="M175.956 35.6026L177.474 32.7091H178.188L176.288 36.2421V38.4803H175.624V36.2736L173.719 32.7091H174.445L175.956 35.6026Z" fill="#FF4D00"/>
</svg>
