<?xml version="1.0" encoding="UTF-8"?><svg id="a" xmlns="http://www.w3.org/2000/svg" viewBox="0 0 384.15 75.16"><defs><style>.b{fill:#b99a81;}.c{fill:#192437;}</style></defs><g><path class="b" d="M22.56,38.47c.37,.25,.77,.41,1.17,.54,1.74,.53,3.68-.07,4.84-1.6,.05-.07,.11-.12,.16-.19,.68-1,.93-2.2,.71-3.37-.22-1.16-.87-2.16-1.84-2.82-.73-.49-1.57-.75-2.43-.75-.29,0-.58,.03-.87,.09-1.17,.23-2.19,.91-2.87,1.91-1.39,2.05-.88,4.83,1.13,6.19Z"/><path class="b" d="M60,37.22h0c.68-1,.93-2.2,.71-3.37-.22-1.16-.87-2.16-1.84-2.81-.73-.49-1.57-.75-2.43-.75-.29,0-.58,.03-.87,.09-1.17,.23-2.19,.91-2.87,1.91-1.09,1.61-1,3.66,.06,5.13,.29,.4,.64,.77,1.07,1.06,.67,.46,1.45,.69,2.25,.73,.35,.01,.7,0,1.05-.07,1.17-.23,2.19-.91,2.87-1.91Z"/><g><path class="b" d="M104.33,16.63c.77,.76,1.16,1.67,1.16,2.73s-.39,1.97-1.16,2.73c-.77,.76-1.69,1.15-2.76,1.15s-1.99-.38-2.76-1.15c-.77-.76-1.16-1.67-1.16-2.73s.39-1.97,1.16-2.73c.77-.76,1.69-1.15,2.76-1.15s1.99,.38,2.76,1.15Zm-4.93,12.66c.57-.55,1.3-.82,2.17-.82s1.64,.27,2.2,.82c.55,.55,.83,1.27,.83,2.17v26.15c0,.86-.28,1.58-.83,2.15-.55,.57-1.29,.85-2.2,.85s-1.59-.28-2.17-.85c-.57-.57-.86-1.28-.86-2.15V31.47c0-.9,.29-1.63,.86-2.17Z"/><path class="b" d="M156.89,31.53c2.12,2.23,3.18,5.35,3.18,9.34v16.81c0,.86-.28,1.58-.83,2.15-.55,.57-1.29,.85-2.2,.85s-1.59-.28-2.17-.85c-.57-.57-.86-1.28-.86-2.15v-16.81c0-2.39-.6-4.2-1.81-5.44-1.21-1.23-2.82-1.85-4.84-1.85s-3.75,.71-5.08,2.12c-1.33,1.41-1.99,3.21-1.99,5.41v16.57c0,.86-.28,1.58-.83,2.15-.55,.57-1.29,.85-2.2,.85s-1.59-.28-2.17-.85c-.57-.57-.86-1.28-.86-2.15v-16.81c0-2.39-.6-4.2-1.81-5.44-1.21-1.23-2.82-1.85-4.84-1.85s-3.81,.71-5.14,2.12c-1.33,1.41-1.99,3.21-1.99,5.41v16.57c0,.86-.28,1.58-.83,2.15-.55,.57-1.29,.85-2.2,.85s-1.59-.28-2.17-.85c-.57-.57-.86-1.28-.86-2.15V31.53c0-.9,.29-1.62,.86-2.17,.57-.55,1.3-.82,2.17-.82s1.58,.26,2.14,.79c.55,.53,.85,1.22,.89,2.09,1.03-1.02,2.26-1.81,3.68-2.38,1.43-.57,2.97-.85,4.63-.85,2.02,0,3.83,.4,5.43,1.2,1.6,.8,2.92,1.95,3.95,3.44,1.19-1.45,2.67-2.59,4.46-3.41,1.78-.82,3.76-1.23,5.94-1.23,3.44,0,6.23,1.12,8.34,3.35Z"/><path class="b" d="M211.12,31.53c2.12,2.23,3.18,5.35,3.18,9.34v16.81c0,.86-.28,1.58-.83,2.15-.56,.57-1.29,.85-2.2,.85s-1.59-.28-2.17-.85c-.58-.57-.86-1.28-.86-2.15v-16.81c0-2.39-.6-4.2-1.81-5.44-1.21-1.23-2.82-1.85-4.84-1.85s-3.75,.71-5.08,2.12c-1.33,1.41-1.99,3.21-1.99,5.41v16.57c0,.86-.28,1.58-.83,2.15-.55,.57-1.29,.85-2.2,.85s-1.59-.28-2.17-.85c-.57-.57-.86-1.28-.86-2.15v-16.81c0-2.39-.6-4.2-1.81-5.44-1.21-1.23-2.82-1.85-4.84-1.85s-3.81,.71-5.14,2.12c-1.33,1.41-1.99,3.21-1.99,5.41v16.57c0,.86-.28,1.58-.83,2.15-.55,.57-1.29,.85-2.2,.85s-1.59-.28-2.17-.85c-.57-.57-.86-1.28-.86-2.15V31.53c0-.9,.29-1.62,.86-2.17,.57-.55,1.3-.82,2.17-.82s1.58,.26,2.14,.79c.55,.53,.85,1.22,.89,2.09,1.03-1.02,2.26-1.81,3.68-2.38,1.42-.57,2.97-.85,4.63-.85,2.02,0,3.83,.4,5.43,1.2,1.6,.8,2.92,1.95,3.95,3.44,1.19-1.45,2.67-2.59,4.45-3.41,1.78-.82,3.76-1.23,5.94-1.23,3.44,0,6.23,1.12,8.34,3.35Z"/><path class="b" d="M245.98,30.32c2.47,1.39,4.41,3.32,5.82,5.79,1.41,2.47,2.11,5.29,2.11,8.46s-.69,5.94-2.08,8.4-3.32,4.4-5.79,5.79c-2.47,1.39-5.3,2.09-8.46,2.09s-6-.69-8.49-2.09c-2.49-1.39-4.43-3.32-5.82-5.79s-2.08-5.27-2.08-8.4,.69-5.99,2.08-8.46,3.33-4.4,5.82-5.79c2.49-1.39,5.33-2.09,8.49-2.09s5.93,.7,8.4,2.09Zm-13.84,4.61c-1.6,.94-2.86,2.25-3.77,3.94-.91,1.69-1.37,3.58-1.37,5.7s.46,4.01,1.37,5.67c.91,1.67,2.17,2.97,3.77,3.91,1.6,.94,3.42,1.41,5.43,1.41s3.83-.47,5.43-1.41c1.6-.94,2.85-2.24,3.74-3.91,.89-1.67,1.34-3.56,1.34-5.67s-.45-4.02-1.34-5.7c-.89-1.68-2.14-3-3.74-3.94s-3.42-1.41-5.43-1.41-3.83,.47-5.43,1.41Z"/></g></g><path class="c" d="M68.49,15.59l3.11-1.72c2.22-1.23,3.02-4.02,1.79-6.24-1.23-2.22-4.03-3.03-6.24-1.79l-5.55,3.07c-5.88-4.33-13.13-6.9-20.98-6.9-8.41,0-16.14,2.95-22.22,7.86l-5.78-2.83c-2.28-1.12-5.03-.17-6.15,2.11s-.17,5.03,2.11,6.15l3.22,1.58c-4.15,5.8-6.61,12.9-6.61,20.57,0,4.97,1.02,9.76,3.02,14.28L.63,63.81c-.86,1.36-.77,3.12,.22,4.39,.99,1.27,2.67,1.79,4.2,1.29l13.53-4.37c6.28,5.01,14.02,7.75,22.06,7.75,19.54,0,35.43-15.89,35.43-35.43,0-8.24-2.83-15.82-7.57-21.85Zm-18.57,28.67c-2.46-1.67-4.04-4.15-4.67-6.85-.69-3-.19-6.28,1.67-9.04,.37-.55,.8-1.06,1.25-1.53,1.6-1.67,3.65-2.81,5.94-3.29,.04,0,.07-.02,.11-.03,3-.6,6.05,.02,8.57,1.73,2.52,1.71,4.22,4.31,4.78,7.32,.56,2.99-.08,6.04-1.79,8.57-1.72,2.53-4.3,4.25-7.29,4.84-.75,.15-1.5,.22-2.24,.22-1.68,0-3.33-.37-4.85-1.1-.51-.24-1-.53-1.48-.85ZM15.65,28.37c1.72-2.53,4.31-4.25,7.3-4.84,.68-.13,1.36-.2,2.03-.21,2.32-.04,4.58,.62,6.54,1.94,1.05,.71,1.96,1.59,2.7,2.58,1.04,1.38,1.76,2.98,2.09,4.74,.3,1.63,.24,3.27-.14,4.84-.32,1.31-.87,2.58-1.65,3.73-1.42,2.09-3.41,3.57-5.62,4.36-1.25,.45-2.58,.69-3.91,.69-2.19,0-4.4-.63-6.34-1.94-5.2-3.52-6.54-10.65-2.99-15.89ZM40.63,9.66c2.1,0,4.13,.25,6.09,.69,2.58,.58,5.03,1.51,7.29,2.76l-13.6,7.53-14.15-6.93c2.19-1.33,4.58-2.37,7.12-3.06,2.32-.63,4.74-.99,7.25-.99Zm0,55.55c-6.88,0-13.49-2.57-18.63-7.23-.71-.65-1.63-.99-2.57-.99-.39,0-.79,.06-1.18,.19l-5.55,1.79,3.12-4.97c.72-1.15,.78-2.59,.16-3.8-.16-.31-.3-.62-.45-.94,5.27,3.47,11.78,3.63,17.12,.97l7.34,9.26,7.68-9.68c5.77,3.3,12.8,2.88,18.13-.7-4.42,9.49-14.03,16.1-25.17,16.1Z"/><g><path class="c" d="M311.79,9.85c2.97,0,5.36,2.35,5.36,5.3s-2.38,5.3-5.36,5.3-5.36-2.35-5.36-5.3,2.38-5.3,5.36-5.3Z"/><path class="c" d="M335.77,53.43c1.19,0,2.12-.92,2.12-2.1s-.92-2.09-2.12-2.09h-6c-5.82,0-10.58-4.71-10.58-10.47s4.76-10.47,10.58-10.47h10.23c2.31,0,4.23,1.9,4.23,4.19s-1.92,4.19-4.23,4.19h-10.23c-1.19,0-2.11,.92-2.11,2.1s.92,2.09,2.11,2.09h6c5.82,0,10.58,4.71,10.58,10.47s-4.76,10.47-10.58,10.47h-13.71c-2.31,0-4.23-1.9-4.23-4.19s1.92-4.19,4.23-4.19h13.71Z"/><path class="c" d="M365.3,61.81c-9.32,0-16.93-7.53-16.93-16.75s7.6-16.75,16.93-16.75,16.93,7.53,16.93,16.75c0,2.29-1.92,4.19-4.23,4.19h-20.03c1.45,2.55,4.16,4.19,7.34,4.19h4.23c2.31,0,4.23,1.9,4.23,4.19s-1.92,4.19-4.23,4.19h-4.23Zm-7.34-20.94h14.68c-1.45-2.49-4.23-4.19-7.34-4.19s-5.88,1.7-7.34,4.19Z"/><path class="c" d="M311,28.3c2.31,0,4.23,1.9,4.23,4.19v14.66c0,3.34,2.64,6.04,5.96,6.24v8.4c-8.02-.21-14.42-6.66-14.42-14.64v-14.66c0-2.29,1.92-4.19,4.23-4.19Z"/><g><path class="c" d="M289.76,61.06c-6.8,0-12.33-5.53-12.33-12.33v-16.31c0-2.28,1.84-4.12,4.12-4.12s4.12,1.84,4.12,4.12v16.31c0,2.25,1.83,4.09,4.09,4.09s4.09-1.83,4.09-4.09v-16.31c0-2.28,1.84-4.12,4.12-4.12s4.12,1.84,4.12,4.12v16.31c0,6.8-5.53,12.33-12.33,12.33Z"/><path class="c" d="M273.33,61.06c-6.8,0-12.33-5.53-12.33-12.33v-16.31c0-2.28,1.84-4.12,4.12-4.12s4.12,1.84,4.12,4.12v16.31c0,2.25,1.83,4.09,4.09,4.09s4.09-1.83,4.09-4.09v-16.31c0-2.28,1.84-4.12,4.12-4.12s4.12,1.84,4.12,4.12v16.31c0,6.8-5.53,12.33-12.33,12.33Z"/></g></g></svg>