<?xml version="1.0" encoding="utf-8"?>
<!-- Generator: Adobe Illustrator 25.2.3, SVG Export Plug-In . SVG Version: 6.00 Build 0)  -->
<svg version="1.1" id="Calque_1" xmlns="http://www.w3.org/2000/svg" xmlns:xlink="http://www.w3.org/1999/xlink" x="0px" y="0px"
	 viewBox="0 0 281.5 110" style="enable-background:new 0 0 281.5 110;" xml:space="preserve">
<style type="text/css">
	.st0{fill:#162338;}
	.st1{fill:#60C6F2;}
</style>
<path class="st0" d="M94.7,29.3l3.7-2.1c2.7-1.5,3.6-4.8,2.2-7.5c-1.5-2.7-4.8-3.6-7.5-2.2l0,0l-6.7,3.7
	c-15.6-11.5-36.9-11-51.9,1.2l-7-3.4c-2.7-1.3-6-0.2-7.4,2.5c-1.3,2.7-0.2,6,2.5,7.4l0,0l3.9,1.9C17.8,43,16.1,59,22.2,72.7
	l-9.1,14.6c-1.3,2.2-0.7,5,1.5,6.3c1.2,0.7,2.6,0.9,3.9,0.5l16.3-5.2c18.4,14.6,45.2,11.6,59.8-6.8C106.7,66.6,106.8,44.8,94.7,29.3
	L94.7,29.3z M72.4,63.8c-2.9-1.9-4.9-4.9-5.6-8.2c-0.9-3.7-0.2-7.7,2-10.9c0.4-0.7,0.9-1.3,1.5-1.8c1.9-2,4.4-3.4,7.1-4h0.1
	c7.4-1.4,14.5,3.4,16,10.7c0,0,0,0.1,0,0.1c1.4,7.5-3.6,14.8-11.1,16.2c-0.8,0.1-1.6,0.2-2.4,0.2c-2,0-4-0.4-5.8-1.3
	C73.5,64.5,72.9,64.1,72.4,63.8z M31.2,44.7c2-3,5.2-5.1,8.8-5.8c3.6-0.7,7.3,0.1,10.3,2.1c6.3,4.3,7.9,12.9,3.5,19.2
	c-1.6,2.4-4,4.2-6.7,5.2c-1.5,0.5-3.1,0.8-4.7,0.8c-2.7,0-5.4-0.8-7.6-2.3C28.5,59.5,26.9,50.9,31.2,44.7z M61.2,22.2
	c2.5,0,4.9,0.3,7.3,0.8c3.1,0.7,6,1.8,8.8,3.3l-16.3,9l-17-8.3C49.1,23.8,55.1,22.2,61.2,22.2L61.2,22.2z M61.2,89
	c-8.3,0-16.3-3.1-22.4-8.7c-1.2-1.1-2.9-1.5-4.5-1l-6.7,2.2l3.8-6c0.9-1.4,0.9-3.1,0.2-4.6c-0.2-0.4-0.4-0.8-0.5-1.1
	c6.1,4.1,14,4.6,20.6,1.3l8.8,11.1l9.2-11.6c6.8,3.9,15.3,3.6,21.8-0.8C86,81.4,74.2,89,61.2,89L61.2,89z"/>
<path class="st0" d="M219.7,74.8c1.4,0.2,2.6-0.8,2.8-2.2c0.2-1.4-0.8-2.6-2.2-2.8c-0.2,0-0.4,0-0.6,0h-7.2c-7,0-12.6-5.6-12.6-12.6
	s5.6-12.6,12.6-12.6h12.3c2.8,0,5,2.3,5,5s-2.3,5-5,5h-12.3c-1.4-0.2-2.6,0.8-2.8,2.2c-0.2,1.4,0.8,2.6,2.2,2.8c0.2,0,0.4,0,0.6,0
	h7.2c7,0,12.6,5.6,12.6,12.6c0,7-5.6,12.6-12.6,12.6h-16.5c-2.8,0-5-2.3-5-5c0-2.8,2.3-5,5-5L219.7,74.8z"/>
<path class="st0" d="M255.2,84.9c-11.1-0.1-20.1-9.2-19.9-20.3c0.1-11.1,9.2-20.1,20.3-19.9c11.1,0.1,20,9.1,20,20.2
	c-0.1,2.8-2.3,5-5.1,5h-24.1c1.8,3.1,5.2,5.1,8.8,5h5.1c2.8,0,5,2.3,5,5c0,2.8-2.3,5-5,5L255.2,84.9z M246.4,59.7H264
	c-2.9-4.9-9.2-6.5-14.1-3.6C248.5,57,247.3,58.2,246.4,59.7z"/>
<path class="st0" d="M189.9,44.6c2.8,0,5,2.2,5.1,5v17.7c0,4,3.2,7.3,7.2,7.5v10.1c-9.6-0.2-17.3-8-17.3-17.6V49.6
	C184.9,46.8,187.2,44.6,189.9,44.6z"/>
<path class="st0" d="M164.4,84c-8.2,0-14.8-6.6-14.8-14.8V49.5c0.4-2.7,2.9-4.7,5.6-4.3c2.2,0.3,4,2.1,4.3,4.3v19.6
	c-0.1,2.7,2,5,4.7,5.1s5-2,5.1-4.7c0-0.1,0-0.3,0-0.4V49.5c0-2.7,2.2-5,4.9-5c2.7,0,5,2.2,5,4.9c0,0,0,0,0,0v19.6
	C179.2,77.3,172.6,84,164.4,84C164.4,84,164.4,84,164.4,84z"/>
<path class="st0" d="M144.6,84c-8.2,0-14.8-6.6-14.8-14.8V49.5c0.4-2.7,2.9-4.7,5.6-4.3c2.2,0.3,4,2.1,4.3,4.3v19.6
	c-0.1,2.7,2,5,4.7,5.1s5-2,5.1-4.7c0-0.1,0-0.3,0-0.4V49.5c0-2.7,2.2-5,4.9-5c2.7,0,5,2.2,5,4.9c0,0,0,0,0,0v19.6
	C159.5,77.3,152.9,84,144.6,84C144.7,84,144.7,84,144.6,84z"/>
<path class="st1" d="M39.5,56.8c0.4,0.3,0.9,0.5,1.4,0.7c2.1,0.6,4.5-0.1,5.8-1.9c0.1-0.1,0.1-0.1,0.2-0.2c0.8-1.2,1.1-2.6,0.8-4
	c-0.5-2.5-2.6-4.3-5.1-4.3c-0.3,0-0.7,0-1,0.1c-2.9,0.6-4.8,3.4-4.3,6.3C37.6,54.8,38.4,56,39.5,56.8L39.5,56.8z"/>
<path class="st1" d="M84.5,55.3L84.5,55.3c0.8-1.2,1.1-2.6,0.8-4c-0.5-2.8-3.2-4.7-6-4.2c-0.1,0-0.1,0-0.2,0
	c-2.9,0.6-4.9,3.4-4.3,6.4c0.1,0.8,0.5,1.5,0.9,2.1c0.3,0.5,0.8,0.9,1.3,1.3c0.8,0.5,1.7,0.8,2.7,0.9c0.4,0,0.8,0,1.2-0.1
	C82.4,57.3,83.7,56.5,84.5,55.3z"/>
<path class="st1" d="M190.9,25.4c3.5,0,6.3,2.9,6.3,6.4c0,3.5-2.9,6.3-6.4,6.3c-3.5,0-6.3-2.9-6.3-6.4
	C184.4,28.3,187.3,25.4,190.9,25.4C190.8,25.4,190.9,25.4,190.9,25.4z"/>
</svg>
