<svg width="150" height="52" viewBox="0 0 150 52" fill="none" xmlns="http://www.w3.org/2000/svg">
<path d="M12.7929 31.0349V43.1628H15.5795V30.3066L3.19823 8.58395H0L12.7929 31.0349Z" fill="white"/>
<path d="M17.6377 21.5669L10.2596 8.58398H8.48637L17.6377 24.6385L26.7574 8.58398H24.9842L17.6377 21.5669Z" fill="white"/>
<path d="M50.8866 21.3769C52.0899 21.3769 53.2299 21.8519 54.0532 22.6752L54.2115 22.8018L55.0982 22.0419L54.9398 21.8835C53.8632 20.8069 52.4382 20.2053 50.8866 20.2053C49.2083 20.2053 47.7834 20.7436 46.7701 21.7885C45.7251 22.8335 45.1551 24.3218 45.1868 25.9684C45.1868 28.755 46.9918 31.6049 50.9183 31.6049C52.4699 31.6049 53.8949 31.0032 54.9715 29.9266L55.1298 29.7683L54.2748 28.945L54.1165 29.1033C53.2932 29.9266 52.1216 30.4016 50.9183 30.4016C47.8467 30.4016 46.4534 28.1533 46.4218 25.9367C46.4218 24.6068 46.8651 23.4352 47.6567 22.6118C48.4484 21.7885 49.5567 21.3769 50.8866 21.3769Z" fill="white"/>
<path d="M63.8695 20.3319H62.6029V31.4782H69.886V30.2432H63.8695V20.3319Z" fill="white"/>
<path d="M82.2039 20.3319H81.0323L76.0291 31.4782H77.3907L78.5624 28.8499H84.6738L85.8455 31.4782H87.2071L82.2356 20.4269L82.2039 20.3319ZM84.1672 27.6466H79.069L81.6023 21.8835L84.1672 27.6466Z" fill="white"/>
<path d="M96.3901 25.7783L92.9386 20.3952L92.9069 20.3319H91.7986L91.6086 20.3635V20.6169L95.7885 27.045V31.4782H97.0234V27.045L101.203 20.6802V20.6169L101.235 20.3319H99.9367L96.3901 25.7783Z" fill="white"/>
<path d="M112.793 29.7682L109.025 20.4585L108.993 20.3319H107.631L112.16 31.3515L112.191 31.5098H113.395L117.828 20.6485L117.954 20.3319H116.593L112.793 29.7682Z" fill="white"/>
<path d="M126.346 26.4433H132.616V25.2717H126.346V21.5352H132.932V20.3319H125.111V31.4782H133.091V30.2432H126.346V26.4433Z" fill="white"/>
<path d="M146.2 27.3616C147.118 27.2666 147.91 26.95 148.48 26.38C149.113 25.7467 149.43 24.8917 149.43 23.9101C149.43 22.2001 148.227 20.3635 145.693 20.3635H140.754V31.5098H142.02V27.4566H144.617L148.258 31.4465L148.322 31.5098H150L146.2 27.3616ZM148.068 23.8784C148.068 25.3983 147.182 26.2217 145.567 26.2217H142.02V21.5351H145.693C146.422 21.5351 147.023 21.7568 147.435 22.2001C147.847 22.6118 148.1 23.2134 148.068 23.8784Z" fill="white"/>
<path d="M36.4471 0.287537H35.5605V51.7125H36.4471V0.287537Z" fill="white"/>
</svg>
